<?xml version="1.0" encoding="UTF-8" standalone="no"?>
<svg
   xmlns:dc="http://purl.org/dc/elements/1.1/"
   xmlns:cc="http://creativecommons.org/ns#"
   xmlns:rdf="http://www.w3.org/1999/02/22-rdf-syntax-ns#"
   xmlns:svg="http://www.w3.org/2000/svg"
   xmlns="http://www.w3.org/2000/svg"
   xmlns:sodipodi="http://sodipodi.sourceforge.net/DTD/sodipodi-0.dtd"
   xmlns:inkscape="http://www.inkscape.org/namespaces/inkscape"
   version="1.1"
   id="svg2"
   width="404.50699"
   height="76.840919"
   viewBox="0 0 404.50697 76.840918"
   sodipodi:docname="Eye-of-Horus.svg"
   inkscape:version="1.0.1 (c497b03c, 2020-09-10)">
  <metadata
     id="metadata8">
    <rdf:RDF>
      <cc:Work
         rdf:about="">
        <dc:format>image/svg+xml</dc:format>
        <dc:type
           rdf:resource="http://purl.org/dc/dcmitype/StillImage" />
        <dc:title></dc:title>
      </cc:Work>
    </rdf:RDF>
  </metadata>
  <defs
     id="defs6" />
  <sodipodi:namedview
     pagecolor="#ffffff"
     bordercolor="#666666"
     borderopacity="1"
     objecttolerance="10"
     gridtolerance="10"
     guidetolerance="10"
     inkscape:pageopacity="0"
     inkscape:pageshadow="2"
     inkscape:window-width="1440"
     inkscape:window-height="769"
     id="namedview4"
     showgrid="false"
     inkscape:zoom="1"
     inkscape:cx="-126.77364"
     inkscape:cy="84.941035"
     inkscape:window-x="0"
     inkscape:window-y="25"
     inkscape:window-maximized="1"
     inkscape:current-layer="svg2"
     inkscape:document-rotation="0" />
  <g
     id="g1218"
     transform="scale(0.34673916)">
    <path
       style="fill:#000000;fill-opacity:1;stroke-width:0.666665"
       d="m 232.46539,210.2043 c 0,39.32028 -69.27534,-33.49213 -95.5301,-60.45888 -16.93035,-17.25744 -31.57255,-37.80494 -52.77113,-50.06881 -3.26274,11.31153 -0.46472,24.19558 -1.03291,36.09688 -0.14369,22.6795 1.26304,45.69018 -2.2843,68.12336 -4.88167,-10.23249 -10.27116,-22.31851 -16.82342,-32.51673 -11.82058,-19.30619 -24.90338,-38.04183 -41.0099,-54.03774 13.15385,2.91424 30.14514,8.84627 41.10799,-2.30946 8.30241,-10.22797 5.1912,-27.06956 -8.26536,-31.0456 C 45.80738,79.45968 34.79479,79.61777 25.66436,85.08953 17.08085,90.23351 9.22728,99.62491 11.05674,85.05943 12.62372,72.58371 27.04745,67.83852 30.34696,61.23207 22.18507,52.96404 48.28259,52.54116 57.78656,49.68786 93.05318,39.10006 128.80907,24.01461 166.3649,29.35885 c 42.01974,5.81045 82.08542,20.67158 122.31046,33.45852 11.27773,2.91236 22.7845,2.82693 34.33827,2.32719 -20.12595,11.62883 -44.0143,13.33678 -64.9404,23.16856 -28.87829,11.56713 -59.07383,21.38314 -90.54769,21.00888 -17.4493,0.28401 -34.9611,-0.55845 -52.18302,-3.50103 22.12469,22.18213 44.29516,44.44996 67.69773,65.27484 23.29734,17.46308 53.78099,31.65443 83.16705,22.89462 15.64466,-5.4251 24.50903,-30.0176 9.89954,-41.12163 -5.72877,-4.31438 -26.02736,-2.36454 -10.18935,1.79567 11.61101,8.95838 6.36724,30.03241 -8.59204,31.34254 -13.88316,3.09428 -26.58567,-10.09792 -24.70922,-23.81112 1.22273,-25.2532 35.42604,-34.76731 54.00614,-21.35771 20.62483,14.93241 16.25557,51.02273 -6.28,62.14504 -14.39818,8.2111 -31.75756,9.18995 -47.87698,7.22111 z M 182.16477,94.20391 c 28.41873,-2.96638 56.19182,-11.52088 82.22441,-23.26868 -11.49877,-6.00279 -24.93266,-9.05642 -37.41337,-13.184 -17.58386,-5.81529 -35.60276,-11.43964 -54.17457,-12.67938 9.49474,14.62868 6.01129,35.89438 -7.96895,46.60658 -15.16287,8.80034 15.37392,2.72992 17.33248,2.52548 z m -36.26272,-0.3488 c 16.80548,-3.37992 28.52286,-22.47371 22.30088,-39.77348 -2.26104,-6.28665 -12.343,-13.48547 -5.29858,-2.98296 8.76734,13.07118 -0.63087,32.83308 -16.418,36.6282 -13.25827,3.1872 -28.52707,-3.71352 -32.6491,-16.96818 12.34109,0.5237 14.83598,-28.5622 1.34865,-18.84275 -12.04303,14.82766 -1.93155,41.00302 17.79692,42.18335 4.31647,0.25825 8.69099,0.60621 12.91923,-0.24418 z M 108.8713,86.73203 c -9.03398,-10.09388 -9.08419,-24.5341 -6.10902,-36.8609 -18.6411,5.75577 -32.44935,11.22555 -56.44455,15.92478 -8.3912,1.64333 4.06078,1.9731 6.1412,2.8463 9.8354,4.12813 19.89019,7.72069 29.93975,11.29599 9.29177,3.30569 19.25339,7.42915 28.05846,9.3864 l -0.18779,-0.57062 z M 271.01363,42.83116 C 226.2706,35.45609 183.10787,15.36514 137.03007,18.5228 102.85851,20.77556 72.01823,38.99834 37.91013,41.18111 24.95869,40.94485 12.08455,37.68372 0,33.23461 9.08701,29.90319 24.80673,32.90363 36.13757,28.52771 77.38118,18.50637 117.15285,-3.27903 160.68496,0.4177 c 42.02984,4.33144 80.88999,22.433 121.69145,32.06603 8.92608,3.45307 25.42045,-0.36346 30.50205,3.65906 -13.33744,3.81547 -27.84566,9.41129 -41.86483,6.68837 z"
       id="path817"
       inkscape:connector-curvature="0"
       sodipodi:nodetypes="sccccccccsscacccccccccccccccsssccsscssccssccssaccccccccccccc" />
    <text
       xml:space="preserve"
       style="font-style:normal;font-variant:normal;font-weight:normal;font-stretch:normal;font-size:131.112px;line-height:1.25;font-family:Futura;-inkscape-font-specification:'Futura, Normal';font-variant-ligatures:normal;font-variant-caps:normal;font-variant-numeric:normal;font-variant-east-asian:normal;fill:#999999;fill-opacity:1;stroke:none;stroke-width:0.936516"
       x="361.51062"
       y="154.12215"
       id="text976"
       transform="scale(0.93651584,1.0677876)"><tspan
         sodipodi:role="line"
         id="tspan974"
         x="361.51062"
         y="154.12215"
         style="font-style:normal;font-variant:normal;font-weight:normal;font-stretch:normal;font-size:131.112px;font-family:Futura;-inkscape-font-specification:'Futura, Normal';font-variant-ligatures:normal;font-variant-caps:normal;font-variant-numeric:normal;font-variant-east-asian:normal;stroke-width:0.936516">Velero Sentinel</tspan></text>
  </g>
</svg>
