<?xml version="1.0" encoding="UTF-8" standalone="no"?>
<svg
   xmlns:dc="http://purl.org/dc/elements/1.1/"
   xmlns:cc="http://creativecommons.org/ns#"
   xmlns:rdf="http://www.w3.org/1999/02/22-rdf-syntax-ns#"
   xmlns:svg="http://www.w3.org/2000/svg"
   xmlns="http://www.w3.org/2000/svg"
   xmlns:sodipodi="http://sodipodi.sourceforge.net/DTD/sodipodi-0.dtd"
   xmlns:inkscape="http://www.inkscape.org/namespaces/inkscape"
   version="1.1"
   id="svg2"
   width="404.50699"
   height="76.840919"
   viewBox="0 0 404.50697 76.840918"
   sodipodi:docname="Eye-of-Horus-light.svg"
   inkscape:version="1.0.1 (c497b03c, 2020-09-10)">
  <metadata
     id="metadata8">
    <rdf:RDF>
      <cc:Work
         rdf:about="">
        <dc:format>image/svg+xml</dc:format>
        <dc:type
           rdf:resource="http://purl.org/dc/dcmitype/StillImage" />
        <dc:title></dc:title>
      </cc:Work>
    </rdf:RDF>
  </metadata>
  <defs
     id="defs6" />
  <sodipodi:namedview
     pagecolor="#ffffff"
     bordercolor="#666666"
     borderopacity="1"
     objecttolerance="10"
     gridtolerance="10"
     guidetolerance="10"
     inkscape:pageopacity="0"
     inkscape:pageshadow="2"
     inkscape:window-width="1440"
     inkscape:window-height="769"
     id="namedview4"
     showgrid="false"
     inkscape:zoom="1"
     inkscape:cx="-126.77364"
     inkscape:cy="84.941035"
     inkscape:window-x="0"
     inkscape:window-y="25"
     inkscape:window-maximized="1"
     inkscape:current-layer="svg2"
     inkscape:document-rotation="0" />
  <g
     id="g1270">
    <path
       style="fill:#ffffff;fill-opacity:1;stroke-width:0.231159"
       d="m 80.604854,72.886062 c 0,13.633881 -24.020473,-11.613033 -33.124027,-20.963461 -5.870415,-5.98383 -10.947439,-13.108453 -18.297817,-17.360817 -1.13132,3.92215 -0.161136,8.389555 -0.35815,12.516202 -0.04982,7.863871 0.437945,15.842575 -0.792056,23.621036 C 26.340137,67.151018 24.47139,62.960321 22.199465,59.424199 18.100807,52.729987 13.564488,46.233607 7.9797267,40.687198 c 4.5609553,1.010481 10.4525003,3.067349 14.2537503,-0.80078 2.87877,-3.546438 1.799992,-9.386076 -2.865924,-10.764725 -3.484341,-1.56991 -7.302837,-1.515094 -10.4687144,0.382179 -2.976239,1.783619 -5.6993793,5.039986 -5.0650339,-0.01044 0.5433334,-4.32582 5.5446054,-5.971164 6.6886743,-8.261878 -2.8300465,-2.86685 6.218986,-3.013479 9.514384,-4.00283 12.228318,-3.671205 24.626286,-8.9019213 37.648363,-7.048864 14.569889,2.014711 28.462229,7.167646 42.409824,11.601379 3.91043,1.009829 7.90028,0.980207 11.90642,0.806928 -6.97845,4.032171 -15.261477,4.624384 -22.517375,8.033447 -10.013234,4.010777 -20.48321,7.414372 -31.39643,7.284601 -6.050356,0.09848 -12.122382,-0.193636 -18.093897,-1.213944 7.671497,7.691413 15.358867,15.412542 23.473455,22.633343 8.0781,6.055134 18.647975,10.975831 28.837273,7.938462 5.424616,-1.881095 8.498244,-10.408278 3.432558,-14.25848 -1.986389,-1.495964 -9.024705,-0.819878 -3.533047,0.622629 4.025992,3.106222 2.207772,10.413413 -2.979197,10.867686 -4.813835,1.072908 -9.218293,-3.501344 -8.567654,-8.256247 0.423969,-8.756274 12.283596,-12.055188 18.726044,-7.405555 7.15144,5.177652 5.63644,17.691579 -2.177522,21.548119 -4.992413,2.84711 -11.01159,3.186516 -16.600824,2.503842 z M 63.163659,32.664185 c 9.853887,-1.02856 19.483905,-3.994741 28.510423,-8.068163 -3.987074,-2.081402 -8.645129,-3.140215 -12.97268,-4.571409 -6.097013,-2.016389 -12.344871,-3.966571 -18.784445,-4.396438 3.292198,5.072337 2.084349,12.445988 -2.763147,16.160327 -5.257561,3.051422 5.33074,0.94657 6.009849,0.875683 z M 50.589954,32.543242 c 5.827118,-1.171951 9.889993,-7.792515 7.732589,-13.791023 -0.783991,-2.179828 -4.279802,-4.675941 -1.837226,-1.034309 3.039981,4.53229 -0.218747,11.384514 -5.692763,12.700431 -4.597161,1.105127 -9.891452,-1.287623 -11.320722,-5.883532 4.27914,0.181587 5.144216,-9.903634 0.46763,-6.53352 -4.17579,5.141331 -0.669744,14.217353 6.170889,14.62662 1.496689,0.08954 3.013507,0.210197 4.479603,-0.08467 z M 37.749943,30.073391 c -3.132435,-3.499943 -3.149844,-8.506933 -2.118236,-12.781117 -6.4636,1.995751 -11.251461,3.892338 -19.571536,5.521745 -2.909558,0.569806 1.408031,0.684151 2.129394,0.986923 3.410319,1.431385 6.896708,2.677066 10.381284,3.916762 3.221821,1.146212 6.675904,2.575978 9.728967,3.254633 L 38.234702,30.77448 Z M 93.971038,14.85124 C 78.456878,12.294015 63.490669,5.3276957 47.513691,6.4225801 35.665073,7.2037002 24.971541,13.522252 13.144927,14.279103 8.6541552,14.197183 4.1901867,13.066421 0,11.523741 3.1508222,10.368607 8.6014647,11.408977 12.530311,9.8916742 26.831085,6.4168832 40.621481,-1.1369681 55.715768,0.14483295 70.289159,1.6467128 83.763495,7.9232325 97.910959,11.263381 c 3.095021,1.197315 8.814261,-0.126026 10.576251,1.26874 -4.62461,1.322973 -9.655176,3.263262 -14.516172,2.319119 z"
       id="path817"
       inkscape:connector-curvature="0"
       sodipodi:nodetypes="sccccccccsscacccccccccccccccsssccsscssccssccssaccccccccccccc" />
    <text
       xml:space="preserve"
       style="font-style:normal;font-variant:normal;font-weight:normal;font-stretch:normal;font-size:45.4617px;line-height:1.25;font-family:Futura;-inkscape-font-specification:'Futura, Normal';font-variant-ligatures:normal;font-variant-caps:normal;font-variant-numeric:normal;font-variant-east-asian:normal;fill:#999999;fill-opacity:1;stroke:none;stroke-width:0.324727"
       x="125.34989"
       y="53.440186"
       id="text976"
       transform="scale(0.93651584,1.0677876)"><tspan
         sodipodi:role="line"
         id="tspan974"
         x="125.34989"
         y="53.440186"
         style="font-style:normal;font-variant:normal;font-weight:normal;font-stretch:normal;font-size:45.4617px;font-family:Futura;-inkscape-font-specification:'Futura, Normal';font-variant-ligatures:normal;font-variant-caps:normal;font-variant-numeric:normal;font-variant-east-asian:normal;stroke-width:0.324727">Velero Sentinel</tspan></text>
  </g>
</svg>
